<mxfile host="app.diagrams.net" modified="2023-06-17T13:17:16.520Z" agent="Mozilla/5.0 (X11; Linux x86_64) AppleWebKit/537.36 (KHTML, like Gecko) Chrome/114.0.0.0 Safari/537.36" etag="d7RrcKbfezqzZgTYuzuL" version="21.4.0" type="device">
  <diagram name="Page-1" id="64c3da0e-402f-94eb-ee01-a36477274f13">
    <mxGraphModel dx="1208" dy="1454" grid="1" gridSize="10" guides="1" tooltips="1" connect="1" arrows="1" fold="1" page="1" pageScale="1" pageWidth="1169" pageHeight="826" background="none" math="0" shadow="0">
      <root>
        <mxCell id="0" />
        <mxCell id="1" parent="0" />
        <mxCell id="2" value="ft_scop&#xa;hypothèse : SAS" style="whiteSpace=wrap;rounded=1;shadow=1;fillColor=#10739E;strokeColor=none;fontColor=#FFFFFF;fontStyle=1;fontSize=24" parent="1" vertex="1">
          <mxGeometry x="810" y="-730" width="340" height="60" as="geometry" />
        </mxCell>
        <mxCell id="3" value="Associés" style="whiteSpace=wrap;rounded=1;fillColor=#F2931E;strokeColor=none;shadow=1;fontColor=#FFFFFF;fontStyle=1;fontSize=14" parent="1" vertex="1">
          <mxGeometry x="605" y="59.9999999999998" width="140" height="60" as="geometry" />
        </mxCell>
        <mxCell id="eSms9qF7fdGtt_-0Qu-M-239" value="" style="edgeStyle=orthogonalEdgeStyle;rounded=0;orthogonalLoop=1;jettySize=auto;html=1;" edge="1" parent="1" source="4" target="44">
          <mxGeometry relative="1" as="geometry" />
        </mxCell>
        <mxCell id="4" value="Non associés" style="whiteSpace=wrap;rounded=1;fillColor=#A66515;strokeColor=none;shadow=1;fontColor=#FFFFFF;fontStyle=1;fontSize=14" parent="1" vertex="1">
          <mxGeometry x="1098" y="59.9999999999998" width="140" height="60" as="geometry" />
        </mxCell>
        <mxCell id="10" value="Employés :&#xa;&gt;= 2" style="whiteSpace=wrap;rounded=1;fillColor=#12AAB5;strokeColor=none;shadow=1;fontColor=#FFFFFF;" parent="1" vertex="1">
          <mxGeometry x="510" y="190.0000000000001" width="120" height="60" as="geometry" />
        </mxCell>
        <mxCell id="12" value="Non employés :&#xa;- personnes physiques&#xa;- personne morale" style="whiteSpace=wrap;rounded=1;fillColor=#12AAB5;strokeColor=none;shadow=1;fontColor=#FFFFFF;" parent="1" vertex="1">
          <mxGeometry x="710" y="190.0000000000001" width="120" height="60" as="geometry" />
        </mxCell>
        <mxCell id="23" value="Part du capital :&#xa;&gt;= 51%" style="whiteSpace=wrap;rounded=1;fillColor=#999999;strokeColor=none;shadow=1;fontColor=#FFFFFF;fontStyle=0" parent="1" vertex="1">
          <mxGeometry x="509.99999999999994" y="290.0000000000001" width="120" height="60" as="geometry" />
        </mxCell>
        <mxCell id="24" value="Droit de vote :&#xa;&gt;= 65%" style="whiteSpace=wrap;rounded=1;fillColor=#999999;strokeColor=none;shadow=1;fontColor=#FFFFFF;fontStyle=0" parent="1" vertex="1">
          <mxGeometry x="510.0000000000001" y="370.0000000000001" width="120" height="60" as="geometry" />
        </mxCell>
        <mxCell id="25" value="Parts sociales :&#xa;min 1/associés" style="whiteSpace=wrap;rounded=1;fillColor=#999999;strokeColor=none;shadow=1;fontColor=#FFFFFF;fontStyle=0" parent="1" vertex="1">
          <mxGeometry x="510.00000000000006" y="450.0000000000001" width="120" height="60" as="geometry" />
        </mxCell>
        <mxCell id="38" value="Part du capital :&#xa;&lt;= 49%" style="whiteSpace=wrap;rounded=1;fillColor=#999999;strokeColor=none;shadow=1;fontColor=#FFFFFF;fontStyle=0" parent="1" vertex="1">
          <mxGeometry x="709.9999999999995" y="290.0000000000001" width="120" height="60" as="geometry" />
        </mxCell>
        <mxCell id="39" value="Droit de vote :&#xa;&lt;= 49%&#xa;&lt;= 35% si non scop    " style="whiteSpace=wrap;rounded=1;fillColor=#999999;strokeColor=none;shadow=1;fontColor=#FFFFFF;fontStyle=0" parent="1" vertex="1">
          <mxGeometry x="709.9999999999998" y="370.0000000000001" width="120" height="60" as="geometry" />
        </mxCell>
        <mxCell id="40" value="Parts sociales :&#xa;min 1/associés" style="whiteSpace=wrap;rounded=1;fillColor=#999999;strokeColor=none;shadow=1;fontColor=#FFFFFF;fontStyle=0" parent="1" vertex="1">
          <mxGeometry x="709.9999999999998" y="450.0000000000001" width="120" height="60" as="geometry" />
        </mxCell>
        <mxCell id="43" value="Employés" style="whiteSpace=wrap;rounded=1;fillColor=#12AAB5;strokeColor=none;shadow=1;fontColor=#FFFFFF;" parent="1" vertex="1">
          <mxGeometry x="1007.9999999999998" y="190.0000000000001" width="120" height="60" as="geometry" />
        </mxCell>
        <mxCell id="44" value="Personnes physiques ou morales" style="whiteSpace=wrap;rounded=1;fillColor=#12AAB5;strokeColor=none;shadow=1;fontColor=#FFFFFF;" parent="1" vertex="1">
          <mxGeometry x="1207.9999999999998" y="190.0000000000001" width="120" height="60" as="geometry" />
        </mxCell>
        <mxCell id="45" value="Part du capital :&#xa;0%" style="whiteSpace=wrap;rounded=1;fillColor=#999999;strokeColor=none;shadow=1;fontColor=#FFFFFF;fontStyle=0" parent="1" vertex="1">
          <mxGeometry x="1007.9999999999998" y="290.0000000000001" width="120" height="60" as="geometry" />
        </mxCell>
        <mxCell id="46" value="Droit de vote :&#xa;0" style="whiteSpace=wrap;rounded=1;fillColor=#999999;strokeColor=none;shadow=1;fontColor=#FFFFFF;fontStyle=0" parent="1" vertex="1">
          <mxGeometry x="1007.9999999999999" y="370.0000000000001" width="120" height="60" as="geometry" />
        </mxCell>
        <mxCell id="47" value="Parts sociales :" style="whiteSpace=wrap;rounded=1;fillColor=#999999;strokeColor=none;shadow=1;fontColor=#FFFFFF;fontStyle=0" parent="1" vertex="1">
          <mxGeometry x="1007.9999999999998" y="450.0000000000001" width="120" height="60" as="geometry" />
        </mxCell>
        <mxCell id="103" value="" style="edgeStyle=elbowEdgeStyle;elbow=vertical;rounded=0;fontColor=#000000;endArrow=none;endFill=0;strokeWidth=8;strokeColor=#23445D;" parent="1" source="3" target="10" edge="1">
          <mxGeometry width="100" height="100" relative="1" as="geometry">
            <mxPoint x="465" y="180" as="sourcePoint" />
            <mxPoint x="565" y="80" as="targetPoint" />
          </mxGeometry>
        </mxCell>
        <mxCell id="104" value="" style="edgeStyle=elbowEdgeStyle;elbow=vertical;rounded=0;fontColor=#000000;endArrow=none;endFill=0;strokeWidth=8;strokeColor=#23445D;" parent="1" source="3" target="12" edge="1">
          <mxGeometry width="100" height="100" relative="1" as="geometry">
            <mxPoint x="805" y="180" as="sourcePoint" />
            <mxPoint x="905" y="80" as="targetPoint" />
          </mxGeometry>
        </mxCell>
        <mxCell id="105" value="" style="edgeStyle=elbowEdgeStyle;elbow=horizontal;rounded=0;fontColor=#000000;endArrow=none;endFill=0;strokeWidth=8;strokeColor=#23445D;" parent="1" source="10" target="23" edge="1">
          <mxGeometry width="100" height="100" relative="1" as="geometry">
            <mxPoint x="450" y="370" as="sourcePoint" />
            <mxPoint x="550" y="270" as="targetPoint" />
            <Array as="points">
              <mxPoint x="490" y="270" />
            </Array>
          </mxGeometry>
        </mxCell>
        <mxCell id="106" value="" style="edgeStyle=elbowEdgeStyle;elbow=horizontal;rounded=0;fontColor=#000000;endArrow=none;endFill=0;strokeWidth=8;strokeColor=#23445D;" parent="1" source="10" target="24" edge="1">
          <mxGeometry width="100" height="100" relative="1" as="geometry">
            <mxPoint x="520" y="230" as="sourcePoint" />
            <mxPoint x="520" y="330" as="targetPoint" />
            <Array as="points">
              <mxPoint x="490" y="290" />
            </Array>
          </mxGeometry>
        </mxCell>
        <mxCell id="110" value="" style="edgeStyle=elbowEdgeStyle;elbow=horizontal;rounded=0;fontColor=#000000;endArrow=none;endFill=0;strokeWidth=8;strokeColor=#23445D;" parent="1" source="10" target="25" edge="1">
          <mxGeometry width="100" height="100" relative="1" as="geometry">
            <mxPoint x="550" y="260" as="sourcePoint" />
            <mxPoint x="550" y="360" as="targetPoint" />
            <Array as="points">
              <mxPoint x="490" y="320" />
            </Array>
          </mxGeometry>
        </mxCell>
        <mxCell id="111" value="" style="edgeStyle=elbowEdgeStyle;elbow=horizontal;rounded=0;fontColor=#000000;endArrow=none;endFill=0;strokeWidth=8;strokeColor=#23445D;" parent="1" target="38" edge="1">
          <mxGeometry width="100" height="100" relative="1" as="geometry">
            <mxPoint x="700" y="220.0000000000004" as="sourcePoint" />
            <mxPoint x="700" y="320.0000000000004" as="targetPoint" />
            <Array as="points">
              <mxPoint x="690" y="270" />
            </Array>
          </mxGeometry>
        </mxCell>
        <mxCell id="112" value="" style="edgeStyle=elbowEdgeStyle;elbow=horizontal;rounded=0;fontColor=#000000;endArrow=none;endFill=0;strokeWidth=8;strokeColor=#23445D;" parent="1" source="12" target="39" edge="1">
          <mxGeometry width="100" height="100" relative="1" as="geometry">
            <mxPoint x="700" y="220.0000000000004" as="sourcePoint" />
            <mxPoint x="700" y="400.0000000000004" as="targetPoint" />
            <Array as="points">
              <mxPoint x="690" y="310" />
            </Array>
          </mxGeometry>
        </mxCell>
        <mxCell id="115" value="" style="edgeStyle=elbowEdgeStyle;elbow=horizontal;rounded=0;fontColor=#000000;endArrow=none;endFill=0;strokeWidth=8;strokeColor=#23445D;" parent="1" source="12" target="40" edge="1">
          <mxGeometry width="100" height="100" relative="1" as="geometry">
            <mxPoint x="700" y="220.0000000000004" as="sourcePoint" />
            <mxPoint x="700" y="480.00000000000034" as="targetPoint" />
            <Array as="points">
              <mxPoint x="690" y="350" />
            </Array>
          </mxGeometry>
        </mxCell>
        <mxCell id="116" value="" style="edgeStyle=elbowEdgeStyle;elbow=vertical;rounded=0;fontColor=#000000;endArrow=none;endFill=0;strokeWidth=8;strokeColor=#23445D;" parent="1" source="4" target="43" edge="1">
          <mxGeometry width="100" height="100" relative="1" as="geometry">
            <mxPoint x="808" y="129.99999999999977" as="sourcePoint" />
            <mxPoint x="708" y="200" as="targetPoint" />
          </mxGeometry>
        </mxCell>
        <mxCell id="117" value="" style="edgeStyle=elbowEdgeStyle;elbow=vertical;rounded=0;fontColor=#000000;endArrow=none;endFill=0;strokeWidth=8;strokeColor=#23445D;" parent="1" source="4" target="44" edge="1">
          <mxGeometry width="100" height="100" relative="1" as="geometry">
            <mxPoint x="808" y="129.99999999999977" as="sourcePoint" />
            <mxPoint x="908" y="200" as="targetPoint" />
          </mxGeometry>
        </mxCell>
        <mxCell id="118" value="" style="edgeStyle=elbowEdgeStyle;elbow=horizontal;rounded=0;fontColor=#000000;endArrow=none;endFill=0;strokeWidth=8;strokeColor=#23445D;" parent="1" source="43" target="45" edge="1">
          <mxGeometry width="100" height="100" relative="1" as="geometry">
            <mxPoint x="988" y="220.00000000000045" as="sourcePoint" />
            <mxPoint x="997.9999999999995" y="320" as="targetPoint" />
            <Array as="points">
              <mxPoint x="988" y="270" />
            </Array>
          </mxGeometry>
        </mxCell>
        <mxCell id="119" value="" style="edgeStyle=elbowEdgeStyle;elbow=horizontal;rounded=0;fontColor=#000000;endArrow=none;endFill=0;strokeWidth=8;strokeColor=#23445D;" parent="1" source="43" target="46" edge="1">
          <mxGeometry width="100" height="100" relative="1" as="geometry">
            <mxPoint x="998" y="220" as="sourcePoint" />
            <mxPoint x="997.9999999999998" y="400" as="targetPoint" />
            <Array as="points">
              <mxPoint x="988" y="310" />
            </Array>
          </mxGeometry>
        </mxCell>
        <mxCell id="122" value="" style="edgeStyle=elbowEdgeStyle;elbow=horizontal;rounded=0;fontColor=#000000;endArrow=none;endFill=0;strokeWidth=8;strokeColor=#23445D;" parent="1" source="43" target="47" edge="1">
          <mxGeometry width="100" height="100" relative="1" as="geometry">
            <mxPoint x="998" y="220" as="sourcePoint" />
            <mxPoint x="997.9999999999998" y="480" as="targetPoint" />
            <Array as="points">
              <mxPoint x="988" y="360" />
            </Array>
          </mxGeometry>
        </mxCell>
        <mxCell id="123" value="" style="edgeStyle=elbowEdgeStyle;elbow=horizontal;rounded=0;fontColor=#000000;endArrow=none;endFill=0;strokeWidth=8;strokeColor=#23445D;entryX=0;entryY=0.5;entryDx=0;entryDy=0;" parent="1" source="44" target="eSms9qF7fdGtt_-0Qu-M-241" edge="1">
          <mxGeometry width="100" height="100" relative="1" as="geometry">
            <mxPoint x="1178" y="220.00000000000045" as="sourcePoint" />
            <mxPoint x="1215" y="320" as="targetPoint" />
            <Array as="points">
              <mxPoint x="1185" y="270" />
            </Array>
          </mxGeometry>
        </mxCell>
        <mxCell id="124" value="" style="edgeStyle=elbowEdgeStyle;elbow=horizontal;rounded=0;fontColor=#000000;endArrow=none;endFill=0;strokeWidth=8;strokeColor=#23445D;entryX=0;entryY=0.5;entryDx=0;entryDy=0;" parent="1" source="44" target="eSms9qF7fdGtt_-0Qu-M-242" edge="1">
          <mxGeometry width="100" height="100" relative="1" as="geometry">
            <mxPoint x="1188" y="220" as="sourcePoint" />
            <mxPoint x="1207.9999999999995" y="400" as="targetPoint" />
            <Array as="points">
              <mxPoint x="1185" y="310" />
            </Array>
          </mxGeometry>
        </mxCell>
        <mxCell id="127" value="" style="edgeStyle=elbowEdgeStyle;elbow=horizontal;rounded=0;fontColor=#000000;endArrow=none;endFill=0;strokeWidth=8;strokeColor=#23445D;exitX=0;exitY=0.5;exitDx=0;exitDy=0;entryX=0;entryY=0.5;entryDx=0;entryDy=0;" parent="1" source="44" target="eSms9qF7fdGtt_-0Qu-M-243" edge="1">
          <mxGeometry width="100" height="100" relative="1" as="geometry">
            <mxPoint x="1174.9999999999998" y="220.0000000000001" as="sourcePoint" />
            <mxPoint x="1225" y="440" as="targetPoint" />
            <Array as="points">
              <mxPoint x="1185" y="350" />
            </Array>
          </mxGeometry>
        </mxCell>
        <mxCell id="229" value="" style="edgeStyle=elbowEdgeStyle;elbow=vertical;rounded=0;fontColor=#000000;endArrow=none;endFill=0;strokeWidth=8;strokeColor=#23445D;" parent="1" source="2" target="3" edge="1">
          <mxGeometry width="100" height="100" relative="1" as="geometry">
            <mxPoint x="540" y="140" as="sourcePoint" />
            <mxPoint x="640" y="40" as="targetPoint" />
            <Array as="points">
              <mxPoint x="980" />
              <mxPoint x="620" y="120" />
            </Array>
          </mxGeometry>
        </mxCell>
        <mxCell id="eSms9qF7fdGtt_-0Qu-M-240" value="" style="edgeStyle=elbowEdgeStyle;elbow=vertical;rounded=0;fontColor=#000000;endArrow=none;endFill=0;strokeWidth=8;strokeColor=#23445D;exitX=0.5;exitY=0;exitDx=0;exitDy=0;entryX=0.5;entryY=1;entryDx=0;entryDy=0;" edge="1" parent="1" source="4" target="2">
          <mxGeometry width="100" height="100" relative="1" as="geometry">
            <mxPoint x="610" y="240" as="sourcePoint" />
            <mxPoint x="710" y="310" as="targetPoint" />
            <Array as="points">
              <mxPoint x="1080" />
            </Array>
          </mxGeometry>
        </mxCell>
        <mxCell id="eSms9qF7fdGtt_-0Qu-M-241" value="Part du capital :" style="whiteSpace=wrap;rounded=1;fillColor=#999999;strokeColor=none;shadow=1;fontColor=#FFFFFF;fontStyle=0" vertex="1" parent="1">
          <mxGeometry x="1204.9999999999998" y="290.0000000000001" width="120" height="60" as="geometry" />
        </mxCell>
        <mxCell id="eSms9qF7fdGtt_-0Qu-M-244" value="" style="edgeStyle=orthogonalEdgeStyle;rounded=0;orthogonalLoop=1;jettySize=auto;html=1;" edge="1" parent="1" source="eSms9qF7fdGtt_-0Qu-M-242" target="46">
          <mxGeometry relative="1" as="geometry" />
        </mxCell>
        <mxCell id="eSms9qF7fdGtt_-0Qu-M-242" value="Droit de vote :" style="whiteSpace=wrap;rounded=1;fillColor=#999999;strokeColor=none;shadow=1;fontColor=#FFFFFF;fontStyle=0" vertex="1" parent="1">
          <mxGeometry x="1205" y="370.0000000000001" width="120" height="60" as="geometry" />
        </mxCell>
        <mxCell id="eSms9qF7fdGtt_-0Qu-M-243" value="Parts sociales :" style="whiteSpace=wrap;rounded=1;fillColor=#999999;strokeColor=none;shadow=1;fontColor=#FFFFFF;fontStyle=0" vertex="1" parent="1">
          <mxGeometry x="1204.9999999999998" y="450.0000000000001" width="120" height="60" as="geometry" />
        </mxCell>
        <mxCell id="eSms9qF7fdGtt_-0Qu-M-247" value="Assemblée générale&#xa;1 / an" style="whiteSpace=wrap;rounded=1;fillColor=#1ba1e2;strokeColor=#006EAF;shadow=1;fontColor=#ffffff;fontStyle=1;fontSize=14" vertex="1" parent="1">
          <mxGeometry x="1150" y="-570" width="160" height="70" as="geometry" />
        </mxCell>
        <mxCell id="eSms9qF7fdGtt_-0Qu-M-272" value="" style="edgeStyle=elbowEdgeStyle;elbow=vertical;rounded=0;fontColor=#000000;endArrow=none;endFill=0;strokeWidth=8;strokeColor=#23445D;entryX=0;entryY=0.5;entryDx=0;entryDy=0;exitX=0.5;exitY=1;exitDx=0;exitDy=0;" edge="1" parent="1" source="2" target="eSms9qF7fdGtt_-0Qu-M-247">
          <mxGeometry width="100" height="100" relative="1" as="geometry">
            <mxPoint x="460" y="100" as="sourcePoint" />
            <mxPoint x="2090" y="180" as="targetPoint" />
            <Array as="points">
              <mxPoint x="1070" y="-535" />
              <mxPoint x="1070" y="-500" />
            </Array>
          </mxGeometry>
        </mxCell>
        <mxCell id="eSms9qF7fdGtt_-0Qu-M-273" value="" style="edgeStyle=elbowEdgeStyle;elbow=vertical;rounded=0;fontColor=#000000;endArrow=none;endFill=0;strokeWidth=8;strokeColor=#23445D;entryX=0.5;entryY=0;entryDx=0;entryDy=0;exitX=0.5;exitY=1;exitDx=0;exitDy=0;" edge="1" parent="1" source="eSms9qF7fdGtt_-0Qu-M-247" target="eSms9qF7fdGtt_-0Qu-M-275">
          <mxGeometry width="100" height="100" relative="1" as="geometry">
            <mxPoint x="1210" y="-490" as="sourcePoint" />
            <mxPoint x="1190" y="-390.0000000000002" as="targetPoint" />
            <Array as="points">
              <mxPoint x="1160" y="-470" />
              <mxPoint x="1120" y="-470" />
              <mxPoint x="1150" y="-410" />
            </Array>
          </mxGeometry>
        </mxCell>
        <mxCell id="eSms9qF7fdGtt_-0Qu-M-275" value="Associés" style="whiteSpace=wrap;rounded=1;fillColor=#F2931E;strokeColor=none;shadow=1;fontColor=#FFFFFF;fontStyle=1;fontSize=14" vertex="1" parent="1">
          <mxGeometry x="1160" y="-480" width="150" height="60" as="geometry" />
        </mxCell>
        <mxCell id="eSms9qF7fdGtt_-0Qu-M-276" value="1 associé = 1 voix" style="whiteSpace=wrap;rounded=1;fillColor=#999999;strokeColor=none;shadow=1;fontColor=#FFFFFF;fontStyle=0" vertex="1" parent="1">
          <mxGeometry x="1157" y="-400" width="150" height="40" as="geometry" />
        </mxCell>
        <mxCell id="eSms9qF7fdGtt_-0Qu-M-277" value="" style="edgeStyle=elbowEdgeStyle;elbow=vertical;rounded=0;fontColor=#000000;endArrow=none;endFill=0;strokeWidth=8;strokeColor=#23445D;entryX=0;entryY=0.5;entryDx=0;entryDy=0;exitX=0;exitY=0.5;exitDx=0;exitDy=0;" edge="1" parent="1" source="eSms9qF7fdGtt_-0Qu-M-275" target="eSms9qF7fdGtt_-0Qu-M-276">
          <mxGeometry width="100" height="100" relative="1" as="geometry">
            <mxPoint x="1135" y="-490" as="sourcePoint" />
            <mxPoint x="1170" y="-420" as="targetPoint" />
            <Array as="points">
              <mxPoint x="1130" y="-430" />
              <mxPoint x="1110" y="-420" />
              <mxPoint x="1200" y="-380" />
            </Array>
          </mxGeometry>
        </mxCell>
        <mxCell id="eSms9qF7fdGtt_-0Qu-M-278" value="Procuration :&#xa;max 1/20 des voix&#xa;max 1 si  &lt;20 associés" style="whiteSpace=wrap;rounded=1;fillColor=#999999;strokeColor=none;shadow=1;fontColor=#FFFFFF;fontStyle=0" vertex="1" parent="1">
          <mxGeometry x="1157" y="-350" width="150" height="60" as="geometry" />
        </mxCell>
        <mxCell id="eSms9qF7fdGtt_-0Qu-M-279" value="" style="edgeStyle=elbowEdgeStyle;elbow=vertical;rounded=0;fontColor=#000000;endArrow=none;endFill=0;strokeWidth=8;strokeColor=#23445D;entryX=-0.007;entryY=0.55;entryDx=0;entryDy=0;exitX=0;exitY=0.5;exitDx=0;exitDy=0;entryPerimeter=0;" edge="1" parent="1" source="eSms9qF7fdGtt_-0Qu-M-275" target="eSms9qF7fdGtt_-0Qu-M-278">
          <mxGeometry width="100" height="100" relative="1" as="geometry">
            <mxPoint x="1205" y="-410" as="sourcePoint" />
            <mxPoint x="1230" y="-370" as="targetPoint" />
            <Array as="points">
              <mxPoint x="1130" y="-420" />
              <mxPoint x="1110" y="-410" />
              <mxPoint x="1090" y="-370" />
              <mxPoint x="1230" y="-317" />
            </Array>
          </mxGeometry>
        </mxCell>
        <mxCell id="eSms9qF7fdGtt_-0Qu-M-282" value="" style="edgeStyle=elbowEdgeStyle;elbow=vertical;rounded=0;fontColor=#000000;endArrow=none;endFill=0;strokeWidth=8;strokeColor=#23445D;entryX=1;entryY=0.5;entryDx=0;entryDy=0;exitX=0.5;exitY=0;exitDx=0;exitDy=0;" edge="1" parent="1" source="eSms9qF7fdGtt_-0Qu-M-283" target="eSms9qF7fdGtt_-0Qu-M-247">
          <mxGeometry width="100" height="100" relative="1" as="geometry">
            <mxPoint x="1420" y="-480" as="sourcePoint" />
            <mxPoint x="1160" y="-525" as="targetPoint" />
            <Array as="points">
              <mxPoint x="1420" y="-535" />
              <mxPoint x="1370" y="-535" />
              <mxPoint x="1080" y="-490" />
            </Array>
          </mxGeometry>
        </mxCell>
        <mxCell id="eSms9qF7fdGtt_-0Qu-M-283" value="Direction :&#xa;mandat max 4 ans" style="whiteSpace=wrap;rounded=1;fillColor=#0050ef;strokeColor=#001DBC;shadow=1;fontColor=#ffffff;fontStyle=1;fontSize=14" vertex="1" parent="1">
          <mxGeometry x="1450" y="-480" width="150" height="60" as="geometry" />
        </mxCell>
        <mxCell id="eSms9qF7fdGtt_-0Qu-M-284" value="" style="edgeStyle=elbowEdgeStyle;elbow=vertical;rounded=0;fontColor=#000000;endArrow=none;endFill=0;strokeWidth=8;strokeColor=#23445D;exitX=0;exitY=0.5;exitDx=0;exitDy=0;entryX=0;entryY=0.5;entryDx=0;entryDy=0;" edge="1" parent="1" source="eSms9qF7fdGtt_-0Qu-M-283" target="eSms9qF7fdGtt_-0Qu-M-285">
          <mxGeometry width="100" height="100" relative="1" as="geometry">
            <mxPoint x="1394" y="-446.5" as="sourcePoint" />
            <mxPoint x="1390" y="-313" as="targetPoint" />
            <Array as="points">
              <mxPoint x="1420" y="-450" />
              <mxPoint x="1344" y="-406.5" />
              <mxPoint x="1324" y="-366.5" />
              <mxPoint x="1464" y="-313.5" />
            </Array>
          </mxGeometry>
        </mxCell>
        <mxCell id="eSms9qF7fdGtt_-0Qu-M-285" value="Directeur général" style="whiteSpace=wrap;rounded=1;fillColor=#999999;strokeColor=none;shadow=1;fontColor=#FFFFFF;fontStyle=0" vertex="1" parent="1">
          <mxGeometry x="1450" y="-400" width="150" height="40" as="geometry" />
        </mxCell>
        <mxCell id="eSms9qF7fdGtt_-0Qu-M-286" value="Conseil d&#39;administation:&#xa;mandat max 4 ans" style="whiteSpace=wrap;rounded=1;fillColor=#0050ef;strokeColor=#001DBC;shadow=1;fontColor=#ffffff;fontStyle=1;fontSize=14" vertex="1" parent="1">
          <mxGeometry x="1670" y="-480" width="150" height="60" as="geometry" />
        </mxCell>
        <mxCell id="eSms9qF7fdGtt_-0Qu-M-287" value="" style="edgeStyle=elbowEdgeStyle;elbow=vertical;rounded=0;fontColor=#000000;endArrow=none;endFill=0;strokeWidth=8;strokeColor=#23445D;exitX=0;exitY=0.5;exitDx=0;exitDy=0;entryX=0;entryY=0.5;entryDx=0;entryDy=0;" edge="1" parent="1" source="eSms9qF7fdGtt_-0Qu-M-286" target="eSms9qF7fdGtt_-0Qu-M-288">
          <mxGeometry width="100" height="100" relative="1" as="geometry">
            <mxPoint x="1614" y="-446.5" as="sourcePoint" />
            <mxPoint x="1610" y="-313" as="targetPoint" />
            <Array as="points">
              <mxPoint x="1640" y="-450" />
              <mxPoint x="1564" y="-406.5" />
              <mxPoint x="1544" y="-366.5" />
              <mxPoint x="1684" y="-313.5" />
            </Array>
          </mxGeometry>
        </mxCell>
        <mxCell id="eSms9qF7fdGtt_-0Qu-M-288" value="Gérant" style="whiteSpace=wrap;rounded=1;fillColor=#999999;strokeColor=none;shadow=1;fontColor=#FFFFFF;fontStyle=0" vertex="1" parent="1">
          <mxGeometry x="1670" y="-348" width="150" height="40" as="geometry" />
        </mxCell>
        <mxCell id="eSms9qF7fdGtt_-0Qu-M-289" value="" style="edgeStyle=elbowEdgeStyle;elbow=vertical;rounded=0;fontColor=#000000;endArrow=none;endFill=0;strokeWidth=8;strokeColor=#23445D;exitX=0.5;exitY=0;exitDx=0;exitDy=0;entryX=1;entryY=0.5;entryDx=0;entryDy=0;" edge="1" parent="1" source="eSms9qF7fdGtt_-0Qu-M-286" target="eSms9qF7fdGtt_-0Qu-M-247">
          <mxGeometry width="100" height="100" relative="1" as="geometry">
            <mxPoint x="1565" y="-480" as="sourcePoint" />
            <mxPoint x="1340" y="-540" as="targetPoint" />
            <Array as="points">
              <mxPoint x="1460" y="-535" />
              <mxPoint x="1410" y="-535" />
              <mxPoint x="1120" y="-490" />
            </Array>
          </mxGeometry>
        </mxCell>
        <mxCell id="eSms9qF7fdGtt_-0Qu-M-290" value="Conseil de surveillance&#xa;Si associés &gt; 20 :&#xa;mandat max 4 ans" style="whiteSpace=wrap;rounded=1;fillColor=#0050ef;strokeColor=#001DBC;shadow=1;fontColor=#ffffff;fontStyle=1;fontSize=14" vertex="1" parent="1">
          <mxGeometry x="1910" y="-480" width="150" height="70" as="geometry" />
        </mxCell>
        <mxCell id="eSms9qF7fdGtt_-0Qu-M-291" value="" style="edgeStyle=elbowEdgeStyle;elbow=vertical;rounded=0;fontColor=#000000;endArrow=none;endFill=0;strokeWidth=8;strokeColor=#23445D;exitX=0;exitY=0.5;exitDx=0;exitDy=0;entryX=0;entryY=0.5;entryDx=0;entryDy=0;" edge="1" parent="1" source="eSms9qF7fdGtt_-0Qu-M-290" target="eSms9qF7fdGtt_-0Qu-M-292">
          <mxGeometry width="100" height="100" relative="1" as="geometry">
            <mxPoint x="1854" y="-446.5" as="sourcePoint" />
            <mxPoint x="1850" y="-313" as="targetPoint" />
            <Array as="points">
              <mxPoint x="1880" y="-450" />
              <mxPoint x="1804" y="-406.5" />
              <mxPoint x="1784" y="-366.5" />
              <mxPoint x="1924" y="-313.5" />
            </Array>
          </mxGeometry>
        </mxCell>
        <mxCell id="eSms9qF7fdGtt_-0Qu-M-292" value="3 &lt;= n &lt;= 9" style="whiteSpace=wrap;rounded=1;fillColor=#999999;strokeColor=none;shadow=1;fontColor=#FFFFFF;fontStyle=0" vertex="1" parent="1">
          <mxGeometry x="1910" y="-348" width="150" height="40" as="geometry" />
        </mxCell>
        <mxCell id="eSms9qF7fdGtt_-0Qu-M-293" value="" style="edgeStyle=elbowEdgeStyle;elbow=vertical;rounded=0;fontColor=#000000;endArrow=none;endFill=0;strokeWidth=8;strokeColor=#23445D;exitX=0.5;exitY=0;exitDx=0;exitDy=0;entryX=1;entryY=0.5;entryDx=0;entryDy=0;" edge="1" parent="1" source="eSms9qF7fdGtt_-0Qu-M-290" target="eSms9qF7fdGtt_-0Qu-M-247">
          <mxGeometry width="100" height="100" relative="1" as="geometry">
            <mxPoint x="1765" y="-480" as="sourcePoint" />
            <mxPoint x="1330" y="-535" as="targetPoint" />
            <Array as="points">
              <mxPoint x="1480" y="-535" />
              <mxPoint x="1430" y="-535" />
              <mxPoint x="1140" y="-490" />
            </Array>
          </mxGeometry>
        </mxCell>
        <mxCell id="eSms9qF7fdGtt_-0Qu-M-294" value="Remboursement des frais + indemnités compensatrices" style="whiteSpace=wrap;rounded=1;fillColor=#999999;strokeColor=none;shadow=1;fontColor=#FFFFFF;fontStyle=0" vertex="1" parent="1">
          <mxGeometry x="1670" y="-400" width="390" height="40" as="geometry" />
        </mxCell>
        <mxCell id="eSms9qF7fdGtt_-0Qu-M-295" value="Directeurs adjoints" style="whiteSpace=wrap;rounded=1;fillColor=#999999;strokeColor=none;shadow=1;fontColor=#FFFFFF;fontStyle=0" vertex="1" parent="1">
          <mxGeometry x="1450" y="-348" width="150" height="40" as="geometry" />
        </mxCell>
        <mxCell id="eSms9qF7fdGtt_-0Qu-M-296" value="" style="edgeStyle=elbowEdgeStyle;elbow=vertical;rounded=0;fontColor=#000000;endArrow=none;endFill=0;strokeWidth=8;strokeColor=#23445D;entryX=0;entryY=0.5;entryDx=0;entryDy=0;exitX=0;exitY=0.5;exitDx=0;exitDy=0;" edge="1" parent="1" source="eSms9qF7fdGtt_-0Qu-M-283" target="eSms9qF7fdGtt_-0Qu-M-295">
          <mxGeometry width="100" height="100" relative="1" as="geometry">
            <mxPoint x="1390" y="-428" as="sourcePoint" />
            <mxPoint x="1400" y="-348" as="targetPoint" />
            <Array as="points">
              <mxPoint x="1420" y="-380" />
              <mxPoint x="1294" y="-374.5" />
              <mxPoint x="1274" y="-334.5" />
              <mxPoint x="1414" y="-281.5" />
            </Array>
          </mxGeometry>
        </mxCell>
        <mxCell id="eSms9qF7fdGtt_-0Qu-M-297" value="Répartition des bénęfices :" style="whiteSpace=wrap;rounded=1;fillColor=#60a917;strokeColor=#2D7600;shadow=1;fontColor=#ffffff;fontStyle=1;fontSize=14" vertex="1" parent="1">
          <mxGeometry x="640" y="-570" width="160" height="70" as="geometry" />
        </mxCell>
        <mxCell id="eSms9qF7fdGtt_-0Qu-M-298" value="Réserve légale :&#xa;&gt;= 15%" style="whiteSpace=wrap;rounded=1;fillColor=#999999;strokeColor=none;shadow=1;fontColor=#FFFFFF;fontStyle=0" vertex="1" parent="1">
          <mxGeometry x="640" y="-470" width="160" height="60" as="geometry" />
        </mxCell>
        <mxCell id="eSms9qF7fdGtt_-0Qu-M-299" value="" style="edgeStyle=elbowEdgeStyle;elbow=vertical;rounded=0;fontColor=#000000;endArrow=none;endFill=0;strokeWidth=8;strokeColor=#23445D;entryX=1;entryY=0.5;entryDx=0;entryDy=0;exitX=0.529;exitY=1;exitDx=0;exitDy=0;exitPerimeter=0;" edge="1" parent="1" source="2" target="eSms9qF7fdGtt_-0Qu-M-297">
          <mxGeometry width="100" height="100" relative="1" as="geometry">
            <mxPoint x="990" y="-660" as="sourcePoint" />
            <mxPoint x="1160" y="-525" as="targetPoint" />
            <Array as="points">
              <mxPoint x="890" y="-535" />
              <mxPoint x="1080" y="-490" />
            </Array>
          </mxGeometry>
        </mxCell>
        <mxCell id="eSms9qF7fdGtt_-0Qu-M-300" value="" style="edgeStyle=elbowEdgeStyle;elbow=vertical;rounded=0;fontColor=#000000;endArrow=none;endFill=0;strokeWidth=8;strokeColor=#23445D;exitX=0;exitY=0.5;exitDx=0;exitDy=0;" edge="1" parent="1" source="eSms9qF7fdGtt_-0Qu-M-297" target="eSms9qF7fdGtt_-0Qu-M-298">
          <mxGeometry width="100" height="100" relative="1" as="geometry">
            <mxPoint x="624" y="-543" as="sourcePoint" />
            <mxPoint x="620" y="-410" as="targetPoint" />
            <Array as="points">
              <mxPoint x="610" y="-490" />
              <mxPoint x="574" y="-503" />
              <mxPoint x="554" y="-463" />
              <mxPoint x="694" y="-410" />
            </Array>
          </mxGeometry>
        </mxCell>
        <mxCell id="eSms9qF7fdGtt_-0Qu-M-301" value="Fond de développement :&#xa;&gt;= 1%" style="whiteSpace=wrap;rounded=1;fillColor=#999999;strokeColor=none;shadow=1;fontColor=#FFFFFF;fontStyle=0" vertex="1" parent="1">
          <mxGeometry x="640" y="-390" width="160" height="60" as="geometry" />
        </mxCell>
        <mxCell id="eSms9qF7fdGtt_-0Qu-M-302" value="Salariés (associés ou non) :&#xa;&gt;= 25%" style="whiteSpace=wrap;rounded=1;fillColor=#999999;strokeColor=none;shadow=1;fontColor=#FFFFFF;fontStyle=0" vertex="1" parent="1">
          <mxGeometry x="640" y="-308" width="160" height="60" as="geometry" />
        </mxCell>
        <mxCell id="eSms9qF7fdGtt_-0Qu-M-303" value="" style="edgeStyle=elbowEdgeStyle;elbow=vertical;rounded=0;fontColor=#000000;endArrow=none;endFill=0;strokeWidth=8;strokeColor=#23445D;exitX=0;exitY=0.5;exitDx=0;exitDy=0;" edge="1" parent="1" source="eSms9qF7fdGtt_-0Qu-M-297" target="eSms9qF7fdGtt_-0Qu-M-301">
          <mxGeometry width="100" height="100" relative="1" as="geometry">
            <mxPoint x="610" y="-515" as="sourcePoint" />
            <mxPoint x="610" y="-420" as="targetPoint" />
            <Array as="points">
              <mxPoint x="610" y="-450" />
              <mxPoint x="570" y="-460" />
              <mxPoint x="544" y="-483" />
              <mxPoint x="524" y="-443" />
              <mxPoint x="664" y="-390" />
            </Array>
          </mxGeometry>
        </mxCell>
        <mxCell id="eSms9qF7fdGtt_-0Qu-M-304" value="" style="edgeStyle=elbowEdgeStyle;elbow=vertical;rounded=0;fontColor=#000000;endArrow=none;endFill=0;strokeWidth=8;strokeColor=#23445D;entryX=0;entryY=0.5;entryDx=0;entryDy=0;" edge="1" parent="1" source="eSms9qF7fdGtt_-0Qu-M-297" target="eSms9qF7fdGtt_-0Qu-M-302">
          <mxGeometry width="100" height="100" relative="1" as="geometry">
            <mxPoint x="604.13" y="-450" as="sourcePoint" />
            <mxPoint x="604.13" y="-275" as="targetPoint" />
            <Array as="points">
              <mxPoint x="610" y="-410" />
              <mxPoint x="534.13" y="-375" />
              <mxPoint x="508.13" y="-398" />
              <mxPoint x="488.13" y="-358" />
              <mxPoint x="628.13" y="-305" />
            </Array>
          </mxGeometry>
        </mxCell>
      </root>
    </mxGraphModel>
  </diagram>
</mxfile>
